<?xml version="1.0" encoding="utf-8"?>
<!-- Generator: Adobe Illustrator 19.1.0, SVG Export Plug-In . SVG Version: 6.00 Build 0)  -->
<!DOCTYPE svg PUBLIC "-//W3C//DTD SVG 1.1//EN" "http://www.w3.org/Graphics/SVG/1.1/DTD/svg11.dtd">
<svg version="1.1" id="Calque_1" xmlns="http://www.w3.org/2000/svg" xmlns:xlink="http://www.w3.org/1999/xlink" x="0px" y="0px"
	 viewBox="-487 489 24 24" style="enable-background:new -487 489 24 24;" xml:space="preserve">
<style type="text/css">
	.st0{fill:#FFFFFF;}
</style>
<g>
	<path class="st0" d="M1257.1,1196.8l-70.4-70.4c-25.9-25.9-67.9-25.9-93.8,0l-46.9,46.9c-25.9,25.9-25.9,67.9,0,93.8l23.4,23.5
		l-258,258l23.5,23.4l46.9,46.9l21-21l-23.5-23.5l21-21l23.5,23.5l21-21l-46.9-46.9l195.1-195.1l23.5,23.5
		c25.9,25.9,67.9,25.9,93.8,0l46.9-46.9C1283,1264.7,1283,1222.7,1257.1,1196.8z M1186.8,1314.1c-13,12.9-34,13-46.9,0l-70.4-70.4
		c-12.9-13-12.9-34,0-46.9l46.9-46.9c12.9-13,34-13,46.9,0l70.4,70.4c12.9,12.9,12.9,33.9,0,46.9L1186.8,1314.1z"/>
</g>
<g>
	<path class="st0" d="M-466.9,494.8l-2.6-2.6c-1-1-2.5-1-3.5,0l-1.8,1.8c-1,1-1,2.5,0,3.5l0.9,0.9l-9.6,9.6l0.9,0.9l1.8,1.8l0.8-0.8
		l-0.9-0.9l0.8-0.8l0.9,0.9l0.8-0.8l-1.8-1.7l7.3-7.3l0.9,0.9c1,1,2.5,1,3.5,0l1.8-1.8C-465.9,497.3-465.9,495.8-466.9,494.8z
		 M-469.5,499.2c-0.5,0.5-1.3,0.5-1.8,0l-2.6-2.6c-0.5-0.5-0.5-1.3,0-1.8l1.8-1.8c0.5-0.5,1.3-0.5,1.8,0l2.6,2.6
		c0.5,0.5,0.5,1.3,0,1.8L-469.5,499.2z"/>
</g>
</svg>
