<?xml version="1.0" encoding="utf-8"?>
<!-- Generator: Adobe Illustrator 19.1.0, SVG Export Plug-In . SVG Version: 6.00 Build 0)  -->
<!DOCTYPE svg PUBLIC "-//W3C//DTD SVG 1.1//EN" "http://www.w3.org/Graphics/SVG/1.1/DTD/svg11.dtd">
<svg version="1.1" id="Calque_1" xmlns="http://www.w3.org/2000/svg" xmlns:xlink="http://www.w3.org/1999/xlink" x="0px" y="0px"
	 viewBox="-487 489 24 24" style="enable-background:new -487 489 24 24;" xml:space="preserve">
<style type="text/css">
	.st0{fill:#FFFFFF;}
</style>
<path class="st0" d="M-967.4,988.8c1.5,2.8,3.8,5.2,6.6,6.6l2.2-2.2c0.3-0.3,0.7-0.4,1-0.2c1.1,0.4,2.3,0.6,3.6,0.6c0.6,0,1,0.4,1,1
	v3.5c0,0.6-0.4,1-1,1c-9.4,0-17-7.6-17-17c0-0.6,0.4-1,1-1h3.5c0.6,0,1,0.4,1,1c0,1.3,0.2,2.4,0.6,3.6c0.1,0.3,0,0.8-0.2,1
	L-967.4,988.8z"/>
<g>
	<path class="st0" d="M-481.9,499c0,4.5,3.7,10.7,6.9,10.7c3,0,6.9-6.2,6.9-10.7s-3.1-6.7-6.9-6.7
		C-478.8,492.3-481.9,494.5-481.9,499z M-473.2,502.3c0.8-0.8,2-1.1,3.1-0.9c0.2,1.1-0.1,2.3-0.9,3.1s-2,1.1-3.1,0.9
		C-474.4,504.4-474.1,503.2-473.2,502.3z M-479.9,501.4c1.1-0.2,2.3,0.1,3.1,0.9c0.8,0.8,1.1,2,0.9,3.1c-1.1,0.2-2.3-0.1-3.1-0.9
		C-479.8,503.7-480.1,502.5-479.9,501.4z"/>
</g>
</svg>
